<svg width="21" height="22" viewBox="0 0 21 22" fill="none" xmlns="http://www.w3.org/2000/svg">
<path d="M5.59961 14.2656V17.7031C5.59961 18.0591 5.88734 18.3477 6.24226 18.3477H14.8109C15.1658 18.3477 15.4535 18.0591 15.4535 17.7031V14.2656C15.4535 13.9097 15.1658 13.6211 14.8109 13.6211H6.24226C5.8873 13.6211 5.59961 13.9097 5.59961 14.2656ZM6.8849 14.9102H14.1682V17.0586H6.8849V14.9102Z" fill="#1B1713"/>
<path d="M19.4796 8.72171C19.4238 8.67994 19.3625 8.64828 19.2983 8.62684C19.3057 8.54464 19.3096 8.46192 19.3096 8.37891C19.3096 7.83827 19.1516 7.31629 18.8661 6.87186C19.6562 6.3745 20.1664 5.49618 20.1664 4.51172C20.1664 2.97168 18.9172 1.71875 17.3816 1.71875C17.2391 1.71875 17.0974 1.72992 16.9573 1.75209C16.5449 0.715559 15.5408 0 14.3826 0C13.2394 0 12.2389 0.694977 11.8158 1.71875H11.8121C10.3314 1.71875 9.11736 2.88385 9.03244 4.34784C8.39969 4.44946 7.79886 4.7007 7.28042 5.07891L6.02657 2.90082C5.1407 1.36198 3.17164 0.83282 1.63721 1.72124C0.102828 2.60975 -0.424785 4.58455 0.461125 6.12348L1.88561 8.59805C1.77435 8.61072 1.66639 8.65236 1.57359 8.72184C1.39163 8.85809 1.29489 9.08054 1.3191 9.30695C1.53319 11.311 1.75087 13.3705 1.9614 15.3623C2.13479 17.0026 2.30818 18.6429 2.48156 20.2718C2.58644 21.257 3.41057 22 4.39862 22H16.6543C17.6426 22 18.4668 21.2567 18.5714 20.271L19.7344 9.30647C19.7584 9.08007 19.6616 8.85784 19.4796 8.72171ZM11.8121 3.00781C11.9143 3.00781 12.0211 3.02057 12.1385 3.04679C12.3096 3.08494 12.4889 3.05138 12.6348 2.95384C12.7807 2.85626 12.8805 2.70312 12.911 2.52996C13.0378 1.81096 13.6568 1.28906 14.3826 1.28906C15.1421 1.28906 15.7783 1.8648 15.8624 2.62831C15.885 2.83349 16.0043 3.01542 16.1831 3.1176C16.362 3.21978 16.5788 3.22983 16.7663 3.14467C16.9662 3.05387 17.1732 3.00781 17.3817 3.00781C18.2085 3.00781 18.8812 3.68246 18.8812 4.51172C18.8812 5.2406 18.3599 5.86137 17.6419 5.98782C17.3859 6.0329 17.1823 6.22806 17.1257 6.48239C17.0692 6.73673 17.1709 7.00017 17.3835 7.15C17.7847 7.43282 18.0243 7.89224 18.0243 8.37895C18.0243 8.60148 17.9733 8.82054 17.8765 9.02241C16.4034 9.55715 14.8881 9.92677 13.3436 10.1292C13.4343 9.93828 13.5098 9.74037 13.57 9.53752C15.2189 7.10845 15.4425 4.67027 15.4514 4.56638C15.4814 4.21171 15.2191 3.89971 14.8655 3.86955C14.5119 3.83999 14.2008 4.10248 14.1707 4.45719C14.1694 4.47279 14.0686 5.57013 13.4913 6.97361C12.9914 5.61056 11.786 4.58683 10.3214 4.34947C10.4024 3.59623 11.0399 3.00781 11.8121 3.00781ZM9.66991 5.58594C11.2054 5.58594 12.4547 6.83886 12.4547 8.37891C12.4547 9.09575 12.1895 9.7628 11.7049 10.2804C11.3136 10.3015 10.9209 10.3125 10.5268 10.3125C10.4486 10.3125 10.3705 10.3119 10.2924 10.3111L7.92842 6.20456C8.42022 5.80757 9.03454 5.58594 9.66991 5.58594ZM1.38161 4.01169C1.51489 3.51282 1.8339 3.09586 2.27986 2.83757C3.20047 2.30454 4.38191 2.622 4.91347 3.54535L5.46464 4.50282L3.63374 4.61304C3.27943 4.63435 3.00947 4.93969 3.03073 5.295C3.0512 5.6372 3.33427 5.90094 3.67162 5.90094C3.6846 5.90094 3.69762 5.90055 3.71073 5.89978L6.18312 5.75098L6.74993 6.73561L4.91903 6.84582C4.56477 6.86714 4.29481 7.17252 4.31606 7.52778C4.33654 7.86998 4.61965 8.13373 4.95695 8.13373C4.96993 8.13373 4.98296 8.13334 4.99607 8.13257L7.46841 7.98372L8.76802 10.2413C7.04868 10.1021 5.36139 9.75829 3.72354 9.21276L1.57423 5.47895C1.3167 5.03168 1.24832 4.5106 1.38161 4.01169ZM17.2933 20.1346C17.2585 20.4631 16.9837 20.7109 16.6543 20.7109H4.39862C4.06924 20.7109 3.79453 20.4633 3.75957 20.135C3.58623 18.5064 3.41289 16.8664 3.23954 15.2264C3.06573 13.582 2.88703 11.8914 2.70949 10.2238C5.21851 11.1385 7.8432 11.6016 10.5268 11.6016C13.2107 11.6016 15.8353 11.1385 18.3446 10.2235L17.2933 20.1346Z" fill="#1B1713"/>
</svg>
