<svg width="25" height="22" viewBox="0 0 25 22" fill="none" xmlns="http://www.w3.org/2000/svg">
<path d="M7.99618 14.3189H7.99731C7.99825 14.3189 7.99919 14.3187 8.00012 14.3187H21.0668C21.3885 14.3187 21.6714 14.1173 21.7598 13.8255L24.6426 4.30556C24.7047 4.10032 24.6612 3.87967 24.5251 3.70932C24.3888 3.53897 24.1758 3.43874 23.9496 3.43874H6.33406L5.81887 1.25124C5.74548 0.940103 5.45307 0.71875 5.11524 0.71875H0.791017C0.39294 0.71875 0.0703125 1.02315 0.0703125 1.39875C0.0703125 1.77434 0.39294 2.07874 0.791017 2.07874H4.53718C4.62839 2.46638 7.00259 12.547 7.13922 13.1269C6.37329 13.4411 5.83595 14.1616 5.83595 14.9987C5.83595 16.1235 6.8059 17.0387 7.99806 17.0387H21.0668C21.4649 17.0387 21.7875 16.7343 21.7875 16.3587C21.7875 15.9831 21.4649 15.6787 21.0668 15.6787H7.99806C7.60073 15.6787 7.27736 15.3736 7.27736 14.9987C7.27736 14.6243 7.59961 14.3198 7.99618 14.3189ZM22.9942 4.79873L20.5231 12.9587H8.57613L6.65425 4.79873H22.9942Z" fill="white"/>
<path d="M7.27734 19.0791C7.27734 20.2039 8.24729 21.119 9.43946 21.119C10.6316 21.119 11.6016 20.2039 11.6016 19.0791C11.6016 17.9542 10.6316 17.0391 9.43946 17.0391C8.24729 17.0391 7.27734 17.9542 7.27734 19.0791ZM9.43946 18.3991C9.83678 18.3991 10.1602 18.7042 10.1602 19.0791C10.1602 19.4539 9.83678 19.759 9.43946 19.759C9.04213 19.759 8.71875 19.4539 8.71875 19.0791C8.71875 18.7042 9.04213 18.3991 9.43946 18.3991Z" fill="white"/>
<path d="M17.4634 19.0791C17.4634 20.2039 18.4333 21.119 19.6255 21.119C20.8177 21.119 21.7876 20.2039 21.7876 19.0791C21.7876 17.9542 20.8177 17.0391 19.6255 17.0391C18.4333 17.0391 17.4634 17.9542 17.4634 19.0791ZM19.6255 18.3991C20.0228 18.3991 20.3462 18.7042 20.3462 19.0791C20.3462 19.4539 20.0228 19.759 19.6255 19.759C19.2282 19.759 18.9048 19.4539 18.9048 19.0791C18.9048 18.7042 19.2282 18.3991 19.6255 18.3991Z" fill="white"/>
</svg>
