<svg width="56" height="84" viewBox="0 0 56 84" fill="none" xmlns="http://www.w3.org/2000/svg">
<path d="M24.4748 84C15.8801 84 9.63549 82.635 5.74101 79.9049C1.91367 77.2414 0 73.5458 0 68.8181C0 65.8882 0.906475 63.1914 2.71942 60.7277C4.59952 58.264 6.81535 56.3995 9.36691 55.1344C6.27818 53.4031 4.73381 50.6064 4.73381 46.7444C4.73381 44.3472 5.43885 42.0832 6.84892 39.9524C8.25899 37.8216 10.1055 36.1903 12.3885 35.0583C9.03118 33.5933 6.44604 31.4958 4.63309 28.7658C2.88729 26.0357 2.01439 22.8062 2.01439 19.0773C2.01439 15.2152 3.08873 11.8526 5.23741 8.9893C7.45324 6.12604 10.3405 3.92865 13.8993 2.39714C17.5252 0.865634 21.3525 0.0998802 25.3813 0.0998802C32.1631 0.0998802 37.4676 1.49822 41.295 4.29489C42.3022 3.29608 43.8465 2.33056 45.9281 1.39834C48.0096 0.466112 50.2254 0 52.5755 0H56V8.78954H44.9209C46.5324 11.2533 47.3381 14.1165 47.3381 17.3793C47.3381 21.308 46.3309 24.8038 44.3165 27.8668C42.3693 30.8633 39.6163 33.1938 36.0576 34.8585C32.5659 36.5232 28.6043 37.3555 24.1727 37.3555C21.2854 37.3555 18.7002 37.0559 16.4173 36.4566C15.4772 37.3888 14.705 38.4209 14.1007 39.5529C13.4964 40.6849 13.1942 41.7836 13.1942 42.849C13.1942 45.2461 14 46.9108 15.6115 47.843C17.223 48.7087 20.1103 49.1415 24.2734 49.1415H35.6547C42.1679 49.1415 47.0024 50.3734 50.1583 52.8371C53.3142 55.3008 54.8921 58.7967 54.8921 63.3246C54.8921 67.1201 53.5156 70.5826 50.7626 73.7123C48.0096 76.9085 44.283 79.4055 39.5827 81.2033C34.9496 83.0678 29.9137 84 24.4748 84ZM25.1799 31.8621C32.8345 31.8621 36.6619 27.3674 36.6619 18.3781C36.6619 13.9168 35.6547 10.654 33.6403 8.58978C31.693 6.45898 28.7386 5.39358 24.777 5.39358C21.0839 5.39358 18.1631 6.42568 16.0144 8.48989C13.8657 10.4875 12.7914 13.717 12.7914 18.1784C12.7914 22.3734 13.7986 25.7027 15.813 28.1665C17.8945 30.6302 21.0168 31.8621 25.1799 31.8621ZM25.3813 78.2069C28.6715 78.2069 31.7602 77.7075 34.6475 76.7087C37.6019 75.7765 39.9856 74.3448 41.7986 72.4138C43.6115 70.5493 44.518 68.352 44.518 65.8216C44.518 62.8252 43.7122 60.6278 42.1007 59.2295C40.4892 57.8977 37.3669 57.2319 32.7338 57.2319H20.8489C18.1631 57.2319 16.048 57.0654 14.5036 56.7325C11.7506 59.7289 10.3741 63.0916 10.3741 66.8204C10.3741 70.5493 11.5156 73.3793 13.7986 75.3104C16.0815 77.2414 19.9424 78.2069 25.3813 78.2069Z" fill="url(#paint0_linear_1531_2530)"/>
<defs>
<linearGradient id="paint0_linear_1531_2530" x1="61.7917" y1="0" x2="-0.106029" y2="0" gradientUnits="userSpaceOnUse">
<stop stop-color="#FF4236"/>
<stop offset="1" stop-color="#406A1D"/>
</linearGradient>
</defs>
</svg>
