<svg width="41" height="41" viewBox="0 0 41 41" fill="none" xmlns="http://www.w3.org/2000/svg">
<path d="M25.7031 24.8027V27H15.9766V25.125L20.5762 20.1934C21.0384 19.679 21.403 19.2266 21.6699 18.8359C21.9368 18.4388 22.1289 18.084 22.2461 17.7715C22.3698 17.4525 22.4316 17.1497 22.4316 16.8633C22.4316 16.4336 22.36 16.0658 22.2168 15.7598C22.0736 15.4473 21.862 15.2064 21.582 15.0371C21.3086 14.8678 20.9701 14.7832 20.5664 14.7832C20.1367 14.7832 19.7656 14.8874 19.4531 15.0957C19.1471 15.304 18.9128 15.5938 18.75 15.9648C18.5938 16.3359 18.5156 16.7559 18.5156 17.2246H15.6934C15.6934 16.3783 15.8952 15.6035 16.2988 14.9004C16.7025 14.1908 17.2721 13.6276 18.0078 13.2109C18.7435 12.7878 19.6159 12.5762 20.625 12.5762C21.6211 12.5762 22.4609 12.7389 23.1445 13.0645C23.8346 13.3835 24.3555 13.8457 24.707 14.4512C25.0651 15.0501 25.2441 15.7663 25.2441 16.5996C25.2441 17.0684 25.1693 17.5273 25.0195 17.9766C24.8698 18.4193 24.6549 18.862 24.375 19.3047C24.1016 19.7409 23.7695 20.1836 23.3789 20.6328C22.9883 21.082 22.5553 21.5475 22.0801 22.0293L19.6094 24.8027H25.7031Z" fill="#F3B12A"/>
<circle cx="20.5" cy="20.5" r="19.5" stroke="#F3B12A" stroke-width="2"/>
</svg>
