<svg width="57" height="56" viewBox="0 0 57 56" fill="none" xmlns="http://www.w3.org/2000/svg">
<path d="M48.9239 22.8975C48.7409 22.6521 48.6624 22.3789 48.6971 22.1074L49.9139 12.5758C50.0508 11.5031 49.4379 10.4632 48.2323 9.72283C47.0271 8.98244 45.3906 8.64179 43.7466 8.78771C42.481 8.9002 41.2562 9.16789 40.1462 9.57135C40.0586 9.49347 39.9683 9.41658 39.8719 9.34199C37.5816 7.57102 33.4957 7.33762 30.7636 8.82134L20.8664 14.1897V12.9888C20.8664 12.8992 20.9075 12.8129 20.9856 12.739L23.0383 10.7922C23.4321 10.4187 23.2841 9.90894 22.7078 9.6537C22.1311 9.39824 21.3448 9.49435 20.9512 9.86787L18.8985 11.8147C18.5323 12.162 18.3387 12.568 18.3387 12.9888V15.5609L10.4622 19.8333V12.118C10.4622 11.235 10.8685 10.3828 11.6373 9.65381L18.8663 2.79709C19.4598 2.23418 20.356 1.85476 21.3898 1.72872C22.4237 1.60268 23.4712 1.745 24.3399 2.12977C25.2084 2.51433 25.7938 3.09526 25.9883 3.76531C26.1828 4.43526 25.9632 5.11437 25.3697 5.67717L24.0433 6.93537C23.6495 7.309 23.7976 7.81861 24.3738 8.07386C24.9497 8.3291 25.7365 8.2331 26.1302 7.85968L27.4566 6.60149C28.431 5.67728 28.7917 4.56249 28.4724 3.46245C28.1531 2.36241 27.1918 1.4086 25.7659 0.777105C24.34 0.145606 22.62 -0.0882297 20.9224 0.118739C19.2251 0.325707 17.7536 0.948687 16.7792 1.87289L9.5502 8.7296C8.49327 9.73222 7.93447 10.9039 7.93447 12.1181V21.2045L4.14386 23.2605C1.41946 24.7384 -0.0407382 26.9911 0.237819 29.2865L1.04249 35.9167C1.09456 36.3459 1.64796 36.6717 2.30113 36.6716C2.33433 36.6716 2.36787 36.6708 2.40157 36.6691C3.09737 36.6337 3.61725 36.2392 3.56248 35.7884L2.75781 29.1582C2.54329 27.3902 3.66797 25.6551 5.76634 24.517L32.3865 10.0775C34.0508 9.17346 36.5398 9.31567 37.9346 10.3943C39.3292 11.4731 39.11 13.0861 37.4456 13.9901L23.5886 21.5164C22.7278 21.6513 21.9038 21.9197 21.1896 22.3223L14.4166 26.1432C13.8902 26.4403 13.8349 26.9577 14.2931 27.2989C14.7515 27.6401 15.5496 27.6758 16.0763 27.3789L22.8494 23.558C24.0273 22.8932 25.746 22.8869 26.9359 23.5429L37.1797 29.19C37.9809 29.6318 38.4688 30.2493 38.5534 30.9288C38.6382 31.6085 38.3094 32.2687 37.6277 32.7879C37.1294 33.1676 36.4709 33.4406 35.7407 33.5802L28.5737 29.6292C26.4241 28.4441 23.3187 28.4557 21.1898 29.6566L14.4168 33.4774C13.8903 33.7745 13.8351 34.2919 14.2933 34.6331C14.7516 34.9744 15.5497 35.0101 16.0765 34.7131L22.8495 30.8922C24.0274 30.2275 25.7461 30.221 26.936 30.8771L37.1798 36.5242C37.9811 36.966 38.469 37.5835 38.5536 38.263C38.6383 38.9427 38.3095 39.6029 37.6279 40.1222C36.9464 40.6415 35.9936 40.9577 34.9451 41.0125C33.8951 41.0672 32.8776 40.8542 32.0766 40.4126L25.7357 36.9169C25.2339 36.6403 24.4888 36.6598 24.0231 36.9616L22.1412 38.1812C21.6477 38.5013 21.6477 39.0198 22.1412 39.3397C22.6348 39.6595 23.4351 39.6595 23.9285 39.3397L24.986 38.6544L30.4387 41.6604C31.6184 42.3109 33.0854 42.6593 34.6175 42.6593C34.7936 42.6593 34.9709 42.6546 35.1484 42.6453C36.8697 42.5553 38.4341 42.0361 39.5532 41.1834C40.6723 40.3308 41.2121 39.2468 41.073 38.131C40.9342 37.0152 40.1331 36.0014 38.8175 35.276L37.8753 34.7567C38.505 34.5196 39.0743 34.214 39.5532 33.8491C41.8632 32.0891 41.5333 29.439 38.8175 27.9417L34.2758 25.438L37.0207 16.3579L39.0694 15.2452C40.3931 14.5264 41.2057 13.5163 41.3573 12.4012C41.419 11.9473 41.3663 11.4985 41.2096 11.0675C42.0895 10.7273 43.0712 10.5009 44.0902 10.4105C44.9715 10.3318 45.848 10.5148 46.4941 10.9116C47.14 11.3084 47.4684 11.8655 47.3951 12.4404L46.1783 21.972C46.1063 22.5349 46.2691 23.1015 46.6486 23.6102L48.8991 26.627C51.7347 30.4281 51.8306 34.8171 49.1622 38.6688L47.7151 40.7575C47.4292 41.1702 47.7136 41.655 48.3504 41.8403C48.5186 41.8892 48.6944 41.9124 48.8674 41.9124C49.3497 41.9124 49.8106 41.7324 50.0211 41.4285L51.4682 39.3398C54.4435 35.0455 54.3365 30.1519 51.1749 25.9138L48.9239 22.8975ZM32.0675 24.2213L28.5733 22.295C28.1337 22.0527 27.6538 21.8612 27.1507 21.7189L33.9384 18.0324L32.0675 24.2213Z" fill="#1B1713"/>
<path d="M47.1678 43.5488C46.531 43.3635 45.7831 43.5476 45.4972 43.9605L42.2603 48.6323C42.1872 48.7378 42.1494 48.8522 42.1494 48.9678V55.1808C42.1494 55.6333 42.7151 56 43.4133 56C44.1115 56 44.6772 55.6333 44.6772 55.1808V49.1434L47.8031 44.6316C48.0891 44.2189 47.8045 43.7341 47.1678 43.5488Z" fill="#1B1713"/>
<path d="M39.8303 5.09765C40.5284 5.09765 41.0941 4.731 41.0941 4.27851V0.819136C41.0941 0.366645 40.5284 0 39.8303 0C39.1321 0 38.5664 0.366645 38.5664 0.819136V4.27851C38.5664 4.73089 39.1323 5.09765 39.8303 5.09765Z" fill="#1B1713"/>
<path d="M45.2252 5.91315C45.42 5.98348 45.6308 6.01668 45.8391 6.01668C46.2828 6.01668 46.7134 5.86498 46.9446 5.59598L49.5416 2.57369C49.8811 2.17843 49.6621 1.67953 49.0524 1.45945C48.4425 1.23938 47.6727 1.38136 47.3332 1.77651L44.7362 4.79879C44.3964 5.19416 44.6155 5.69296 45.2252 5.91315V5.91315Z" fill="#1B1713"/>
<path d="M56.015 5.64154C55.6474 5.25698 54.8687 5.13837 54.275 5.37646L49.7372 7.19789C49.1439 7.4361 48.9607 7.94101 49.3282 8.32557C49.5673 8.57579 49.9807 8.71351 50.4039 8.71351C50.631 8.71351 50.8609 8.67387 51.0682 8.59064L55.606 6.76921C56.1995 6.53112 56.3827 6.0262 56.015 5.64154V5.64154Z" fill="#1B1713"/>
<path d="M7.66705 44.8436C5.68479 43.2292 4.41907 41.292 4.00654 39.2416C3.91621 38.7932 3.28276 38.4777 2.58982 38.5352C1.89772 38.5937 1.4097 39.0048 1.50002 39.4534C1.97187 41.7993 3.42044 44.016 5.68901 45.8636L10.9036 50.111V55.1273C10.9036 55.5798 11.4695 55.9464 12.1675 55.9464C12.8654 55.9464 13.4313 55.5798 13.4313 55.1273V49.8249C13.4313 49.6396 13.3344 49.4597 13.1565 49.3148L7.66705 44.8436Z" fill="#1B1713"/>
</svg>
