<svg width="57" height="57" viewBox="0 0 57 57" fill="none" xmlns="http://www.w3.org/2000/svg">
<path fill-rule="evenodd" clip-rule="evenodd" d="M51.8526 22.4743C55.0464 24.8317 56.9531 28.5873 56.9531 32.52V34.4185C56.9531 37.3387 55.8954 40.1748 54.024 42.4103C55.7762 43.2349 56.9531 44.9845 56.9531 47.0176C56.9531 49.5602 55.1286 51.6855 52.6158 52.073L21.6433 56.8375C21.1438 56.9143 20.6353 56.9531 20.1331 56.9531H19.9209C16.354 56.9531 13.2298 55.0582 11.4766 52.2274L6.7428 53.2797C6.56487 53.3203 6.37971 53.3402 6.19364 53.3402C4.79816 53.3402 3.6628 52.2049 3.6628 50.8094V50.4517C3.6628 50.1988 3.71158 49.9585 3.78113 49.7273H3.6628C2.16887 49.7273 0.953125 48.5116 0.953125 47.0176C0.953125 45.5237 2.16887 44.308 3.6628 44.308H3.78113C3.71158 44.0767 3.6628 43.8365 3.6628 43.5836V43.2259C3.6628 41.8304 4.79816 40.6951 6.19364 40.6951C6.37971 40.6951 6.56487 40.7149 6.74461 40.7565L11.4766 41.8078C12.1477 40.724 13.0193 39.7801 14.0427 39.0259L12.0447 33.4304C9.36216 33.108 7.27571 30.8174 7.27571 28.0499C7.27571 27.6317 7.32809 27.2099 7.43196 26.7908C6.19183 25.7674 5.46925 24.2563 5.46925 22.6305C5.46925 21.8818 5.6228 21.1483 5.91996 20.47C3.95003 19.1333 2.75958 16.9213 2.75958 14.5015C2.75958 11.4838 4.66809 8.77687 7.46448 7.73364C8.057 5.43403 10.1245 3.7459 12.5162 3.66551C13.4754 1.99906 15.2557 0.953125 17.2112 0.953125C19.5424 0.953125 21.5674 2.43261 22.3153 4.57596C24.092 4.46396 25.7503 5.22538 26.8504 6.59738C28.5124 7.08061 29.8645 8.33338 30.4444 9.99532C33.5623 9.80564 36.1789 12.3121 36.1789 15.4047C36.1789 16.5527 35.8213 17.6493 35.1583 18.566C35.8213 19.4828 36.1789 20.5802 36.1789 21.7273C36.1789 22.0344 36.1437 22.3388 36.0922 22.6396C36.1798 22.7145 36.2647 22.7922 36.3451 22.8753C36.4063 22.8252 36.4657 22.7732 36.5251 22.7212C36.6164 22.6412 36.7078 22.5612 36.8058 22.4878C37.2736 22.1392 37.8273 21.9179 38.4 21.8095L37.9998 17.4108C37.9899 17.3051 37.9854 17.1994 37.9854 17.0938C37.9854 15.1663 39.5534 13.5983 41.4809 13.5983H41.7157C43.6432 13.5983 45.2112 15.1663 45.2112 17.0938C45.2112 17.1994 45.2067 17.3051 45.1976 17.4099L44.7993 21.7896C45.4171 21.8836 46.0187 22.1112 46.52 22.4942C46.6 22.5555 46.6743 22.6225 46.7488 22.6896C46.8004 22.7362 46.852 22.7827 46.9056 22.8274C47.6065 22.1347 48.5613 21.7273 49.5801 21.7273C50.3939 21.7273 51.2014 21.992 51.8526 22.4743ZM49.7273 32.7142C49.7273 29.2738 48.1178 25.9905 45.4216 23.9294C45.1886 23.7496 44.9176 23.6358 44.6358 23.5789L44.5031 25.0403C45.5246 25.5371 46.1144 26.294 46.1144 27.1467C46.1144 28.6912 44.1734 29.8563 41.5983 29.8563C41.3766 29.8563 41.1656 29.8382 40.9543 29.8201L40.9245 29.8175C40.7863 30.7189 40.6951 31.6285 40.6951 32.5389V36.206C40.6951 37.55 40.8549 38.8886 41.153 40.1992L48.396 41.3138C49.2658 39.6961 49.7273 37.8833 49.7273 36.0317V32.7142ZM41.7166 15.4047H41.4809C40.5496 15.4047 39.7918 16.1625 39.7918 17.0938C39.7918 17.1444 39.7936 17.1958 39.7982 17.2473L40.6183 26.2669L39.9291 26.4882C39.1379 26.742 38.8886 27.0753 38.8886 27.1467C38.8886 27.3716 39.8496 28.0499 41.5983 28.0499C43.3469 28.0499 44.308 27.3716 44.308 27.1467C44.308 27.0753 44.0587 26.742 43.2674 26.4891L42.5783 26.2678L43.3984 17.2473C43.4038 17.1967 43.4056 17.1453 43.4056 17.0938C43.4056 16.1625 42.6478 15.4047 41.7166 15.4047ZM38.6935 25.0403L38.5634 23.6087C38.3196 23.6747 38.0874 23.7849 37.886 23.9348C35.1203 25.996 33.4693 29.2783 33.4693 32.7133V36.0308C33.4693 37.0695 33.6246 38.0929 33.9145 39.0855L39.2391 39.9047C39.0078 38.6863 38.8886 37.4471 38.8886 36.206V32.5389C38.8886 31.5038 38.9943 30.4687 39.156 29.4436C37.8942 28.9739 37.0822 28.142 37.0822 27.1467C37.0822 26.294 37.672 25.5371 38.6935 25.0403ZM28.0499 34.4185C28.0499 35.758 28.3118 37.0578 28.8023 38.2988L31.9753 38.7874C31.7739 37.8842 31.6628 36.9629 31.6628 36.0317V32.7142C31.6628 29.5204 32.902 26.4548 35.0318 24.1209C34.6642 23.7533 34.162 23.5338 33.6165 23.5338C33.1865 23.5338 32.7602 23.6729 32.417 23.9258C29.6829 25.9454 28.0499 29.1573 28.0499 32.5191V34.4185ZM29.0516 12.0899L28.8872 11.1605C28.5819 9.43261 27.0907 8.17893 25.3402 8.17893C23.8905 8.17893 22.5863 9.04151 22.0163 10.3765L21.7616 10.9744L21.114 10.922C21.0499 10.9175 20.9858 10.9094 20.9225 10.9003L20.9085 10.8983L20.8963 10.8963L20.8963 10.8963C20.8725 10.8925 20.8485 10.8886 20.8241 10.8886C19.0547 10.8886 17.5255 12.2164 17.2681 13.9767L17.1841 14.5539L16.6232 14.7147C14.31 15.3767 12.6951 17.5174 12.6951 19.9209C12.6951 21.9685 13.8331 23.8183 15.6658 24.7504L16.5708 25.2102L16.0081 26.0556C15.6134 26.6499 15.4047 27.3391 15.4047 28.0499C15.4047 29.2891 16.0379 30.4281 17.0974 31.0983L17.7233 31.4939L17.4596 32.1849C17.2952 32.6175 17.2112 33.0493 17.2112 33.4702C17.2112 35.4762 18.8316 37.1093 20.8241 37.1093C21.0987 37.1291 21.3724 37.1571 21.6433 37.1987L26.78 37.989C26.4313 36.8329 26.2434 35.6397 26.2434 34.4194V32.52C26.2434 31.9654 26.2904 31.4162 26.3645 30.8725C23.9845 28.9802 19.9633 28.9531 19.9209 28.9531V27.1467C20.0907 27.1467 23.3667 27.1693 26.1125 28.5774C25.5615 26.7493 24.9374 25.0431 24.3042 23.4868C22.5068 21.6523 18.6591 21.5864 17.3006 21.7228L17.1209 19.9254C17.297 19.9073 20.3671 19.6264 23.0686 20.6434C21.4654 17.194 20.088 15.0272 20.0636 14.9902L21.5837 14.0129C21.6975 14.1899 23.4714 16.9818 25.3511 21.2974C26.7231 17.698 29.1663 15.7028 29.2918 15.6025L29.8563 16.308L30.4218 17.0116L30.4214 17.0119C30.3727 17.0522 27.2888 19.6045 26.4557 24.0053C26.826 24.9744 27.1855 25.9951 27.5278 27.0609C28.4058 25.2734 29.7001 23.6864 31.344 22.4734C31.9952 21.992 32.8027 21.7273 33.6165 21.7273C33.873 21.7273 34.1223 21.7607 34.3671 21.8095C34.3671 21.8031 34.3673 21.7967 34.3678 21.7903L34.3686 21.7799L34.3698 21.7677L34.3698 21.7676C34.3712 21.7541 34.3725 21.7407 34.3725 21.7273C34.3725 20.778 34.004 19.8802 33.3356 19.1992L32.7142 18.566L33.3356 17.9329C34.004 17.2518 34.3725 16.354 34.3725 15.4047C34.3725 13.4122 32.7521 11.7918 30.7596 11.7918C30.5103 11.7918 30.2529 11.8225 29.9729 11.8849L29.0516 12.0899ZM12.6951 31.6628H13.3318L15.6215 38.0739C16.1165 37.8345 16.6322 37.6331 17.1687 37.4778C16.0876 36.4824 15.4047 35.0562 15.4047 33.4693C15.4047 33.0511 15.4571 32.6302 15.561 32.2111C14.3209 31.1868 13.5983 29.6757 13.5983 28.0499C13.5983 27.3011 13.7518 26.5677 14.049 25.8894C12.0791 24.5526 10.8886 22.3406 10.8886 19.9209C10.8886 16.9032 12.7971 14.1962 15.5935 13.153C16.186 10.8534 18.2535 9.16525 20.6453 9.08487C21.3471 7.86551 22.4905 6.98396 23.8183 6.59558C23.4407 6.46371 23.046 6.37248 22.6305 6.37248C22.3813 6.37248 22.1238 6.40319 21.8438 6.46551L20.9225 6.67054L20.7582 5.74113C20.4529 4.01325 18.9616 2.75958 17.2112 2.75958C15.7615 2.75958 14.4573 3.62216 13.8882 4.95622L13.6326 5.55687L12.9823 5.50267C12.9191 5.49725 12.8576 5.48913 12.7962 5.481L12.7962 5.481C12.7872 5.47978 12.7783 5.47837 12.7692 5.47696C12.7448 5.47312 12.7202 5.46925 12.6951 5.46925C10.9256 5.46925 9.39648 6.797 9.13816 8.55738L9.05416 9.13454L8.49325 9.29532C6.181 9.95738 4.56603 12.098 4.56603 14.5015C4.56603 16.5491 5.70409 18.3989 7.53674 19.3311L8.44177 19.7908L7.87906 20.6362C7.48435 21.2305 7.27571 21.9197 7.27571 22.6305C7.27571 23.8698 7.90887 25.0087 8.96925 25.6789L9.59519 26.0745L9.33054 26.7655C9.16616 27.1964 9.08216 27.6281 9.08216 28.0499C9.08216 30.0424 10.7025 31.6628 12.6951 31.6628ZM5.46925 43.2259V43.5836C5.46925 43.9828 5.79441 44.308 6.19364 44.308H10.3711C10.4514 44.0243 10.5454 43.7471 10.6502 43.4743L6.35171 42.5187C5.90822 42.4229 5.46925 42.7725 5.46925 43.2259ZM3.6628 46.1144C3.16512 46.1144 2.75958 46.52 2.75958 47.0176C2.75958 47.5153 3.16512 47.9209 3.6628 47.9209H6.19364H10.0314C10.0044 47.6228 9.98538 47.3229 9.98538 47.0176C9.98538 46.7123 10.0044 46.4125 10.0305 46.1144H6.19364H3.6628ZM5.46925 50.8094C5.46925 51.2619 5.92177 51.6087 6.3499 51.5166L10.6493 50.561C10.5454 50.2882 10.4505 50.0109 10.3702 49.7273H6.19364C5.79441 49.7273 5.46925 50.0525 5.46925 50.4517V50.8094ZM52.3422 50.2873C53.9671 50.0371 55.1467 48.6624 55.1467 47.0176C55.1467 45.3729 53.9671 43.9982 52.3413 43.7471L21.3696 38.9825C20.9605 38.9202 20.5441 38.8886 20.1331 38.8886H19.9209C15.4391 38.8886 11.7918 42.5358 11.7918 47.0176C11.7918 51.4994 15.4391 55.1467 19.9209 55.1467H20.1331C20.5441 55.1467 20.9605 55.1151 21.3705 55.0518L52.3422 50.2873ZM52.0658 41.8774C54.0222 39.8849 55.1467 37.1969 55.1467 34.4185V32.52C55.1467 29.1582 53.5136 25.9454 50.7796 23.9276C50.4364 23.6729 50.0109 23.5338 49.5801 23.5338C49.0589 23.5338 48.5748 23.7406 48.2099 24.0847C50.3108 26.4223 51.5338 29.5032 51.5338 32.7133V36.0308C51.5338 37.9691 51.0957 39.8686 50.2711 41.601L52.0658 41.8774ZM20.824 42.5015H19.0176V51.5338H20.824V42.5015ZM26.2432 42.5015H28.0496V51.5338H26.2432V42.5015ZM35.2762 42.5015H33.4697V51.5338H35.2762V42.5015ZM40.6953 44.308H42.5018V49.7273H40.6953V44.308ZM49.7273 45.2112H47.9209V48.8241H49.7273V45.2112Z" fill="#1B1713"/>
</svg>
