<svg width="56" height="56" viewBox="0 0 56 56" fill="none" xmlns="http://www.w3.org/2000/svg">
<path d="M54.8785 40.373H42.6461C43.1457 39.6123 43.4374 38.7036 43.4374 37.7274C43.4374 36.176 42.7019 34.7941 41.5621 33.9091V30.3253L42.1101 30.8732C42.3237 31.0867 42.6036 31.1936 42.8835 31.1936C43.1634 31.1936 43.4432 31.0867 43.6568 30.8732L47.9561 26.574C48.1612 26.3688 48.2765 26.0907 48.2765 25.8006C48.2765 25.5106 48.1612 25.2324 47.9561 25.0272L43.6568 20.7279C43.4517 20.5229 43.1735 20.4076 42.8835 20.4076C42.5934 20.4076 42.3152 20.5229 42.1101 20.7279L41.5621 21.2759V5.90624C41.5621 5.30227 41.0723 4.81249 40.4684 4.81249H36.9765V3.94559C36.9766 1.77001 35.2067 0 33.031 0C30.8554 0 29.0855 1.77001 29.0855 3.94559V4.81249H24.7267V3.94559C24.7267 1.77001 22.9568 0 20.7811 0C18.6054 0 16.8355 1.77001 16.8355 3.94559V4.81249H12.4768V3.94559C12.4768 1.77001 10.7069 0 8.53119 0C6.35552 0 4.58563 1.77001 4.58563 3.94559V4.81249H1.09374C0.489778 4.81249 0 5.30227 0 5.90624V54.9061C0 55.5101 0.489778 55.9999 1.09374 55.9999H15.8596C16.4636 55.9999 16.9533 55.5101 16.9533 54.9061C16.9533 54.3022 16.4636 53.8124 15.8596 53.8124H2.18749V6.99999H10.2893V7.86689C10.2893 8.83628 9.50058 9.62498 8.53119 9.62498C7.92723 9.62498 7.43745 10.1148 7.43745 10.7187C7.43745 11.3227 7.92723 11.8125 8.53119 11.8125C10.7069 11.8125 12.4768 10.0425 12.4768 7.86689V6.99999H22.5392V7.86689C22.5392 8.83628 21.7505 9.62498 20.7811 9.62498C20.1771 9.62498 19.6874 10.1148 19.6874 10.7187C19.6874 11.3227 20.1771 11.8125 20.7811 11.8125C22.9568 11.8125 24.7267 10.0425 24.7267 7.86689V6.99999H34.7891V7.86689C34.7891 8.83628 34.0004 9.62498 33.031 9.62498C32.4271 9.62498 31.9373 10.1148 31.9373 10.7187C31.9373 11.3227 32.4271 11.8125 33.031 11.8125C35.2067 11.8125 36.9766 10.0425 36.9766 7.86689V6.99999H39.3747V23.4635L37.811 25.0272C37.3839 25.4544 37.3839 26.1469 37.811 26.5741L39.3747 28.1379V32.9566C39.1238 32.9162 38.8667 32.8945 38.6045 32.8945C35.9396 32.8945 33.7715 35.0625 33.7715 37.7275C33.7715 38.7036 34.0632 39.6124 34.5628 40.3731H27.9998C27.3958 40.3731 26.9061 40.8629 26.9061 41.4668C26.9061 46.6715 29.6567 51.2452 33.7801 53.8125H25.703C25.099 53.8125 24.6092 54.3023 24.6092 54.9063C24.6092 55.5102 25.099 56 25.703 56H41.4392C49.4528 56 55.9723 49.4805 55.9723 41.4668C55.9723 40.8628 55.4825 40.373 54.8785 40.373ZM6.77311 4.81249V3.94559C6.77311 2.9762 7.56181 2.1875 8.53119 2.1875C9.50058 2.1875 10.2893 2.9762 10.2893 3.94559V4.81249H6.77311ZM19.023 4.81249V3.94559C19.023 2.9762 19.8117 2.1875 20.7811 2.1875C21.7505 2.1875 22.5392 2.9762 22.5392 3.94559V4.81249H19.023ZM31.2729 4.81249V3.94559C31.2729 2.9762 32.0616 2.1875 33.031 2.1875C34.0004 2.1875 34.7891 2.9762 34.7891 3.94559V4.81249H31.2729ZM42.8836 23.0483L45.636 25.8007L42.8836 28.5532L40.1312 25.8007L42.8836 23.0483ZM35.9591 37.7275C35.9591 36.2688 37.1459 35.082 38.6046 35.082C40.0634 35.082 41.2502 36.2688 41.2502 37.7275C41.2502 39.1863 40.0634 40.3731 38.6046 40.3731C37.1459 40.3731 35.9591 39.1861 35.9591 37.7275ZM41.4392 53.8124C35.0003 53.8124 29.697 48.8575 29.1416 42.5605H53.7367C53.1814 48.8575 47.878 53.8124 41.4392 53.8124V53.8124Z" fill="#1B1713"/>
<path d="M45.8292 36.4406C46.9545 37.5659 48.4507 38.1856 50.0421 38.1856C51.6335 38.1856 53.1296 37.5659 54.255 36.4406C55.3803 35.3154 55.9998 33.8191 55.9998 32.2277C55.9998 30.6363 55.3801 29.1402 54.2549 28.0148C53.8276 27.5878 53.1353 27.5878 52.708 28.0148L45.8291 34.8937C45.402 35.321 45.402 36.0135 45.8292 36.4406V36.4406ZM53.3671 30.4495C54.1291 31.8759 53.9093 33.6926 52.7081 34.8938C51.507 36.0951 49.6901 36.3148 48.2638 35.5528L53.3671 30.4495Z" fill="#1B1713"/>
<path d="M30.1679 21.0144C29.5639 21.0144 29.0741 21.5042 29.0741 22.1082V22.54C28.3491 22.7538 27.6962 23.1778 27.2009 23.7741C26.4659 24.6592 26.1654 25.8154 26.3766 26.9463L27.4637 32.7683C27.7067 34.0697 28.8439 35.0143 30.1679 35.0143C31.4918 35.0143 32.629 34.0697 32.872 32.7684L33.9591 26.9463C34.1703 25.8154 33.8699 24.6592 33.1349 23.7741C32.6395 23.1777 31.9867 22.7537 31.2616 22.54V22.1082C31.2616 21.5041 30.7719 21.0144 30.1679 21.0144V21.0144ZM31.452 25.1718C31.7701 25.5549 31.9003 26.0554 31.8088 26.5448L30.7217 32.367C30.672 32.6335 30.439 32.8269 30.168 32.8269C29.8969 32.8269 29.664 32.6334 29.6142 32.3668L28.5271 26.5448C28.4357 26.0553 28.5659 25.5549 28.8839 25.1718C29.2021 24.7888 29.6701 24.5691 30.1681 24.5691C30.6661 24.5691 31.1339 24.7888 31.452 25.1718V25.1718Z" fill="#1B1713"/>
<path d="M8.86691 17.7853C8.66358 17.5808 8.3814 17.4648 8.09374 17.4648C7.80609 17.4648 7.5239 17.5808 7.32047 17.7853C7.11703 17.9887 7 18.2709 7 18.5586C7 18.8462 7.11692 19.1273 7.32047 19.3319C7.5239 19.5352 7.80609 19.6523 8.09374 19.6523C8.3814 19.6523 8.66358 19.5353 8.86691 19.3319C9.07035 19.1273 9.18749 18.8462 9.18749 18.5586C9.18749 18.2709 9.07045 17.9887 8.86691 17.7853Z" fill="#1B1713"/>
<path d="M23.1958 17.4628H13.5264C12.9224 17.4628 12.4326 17.9525 12.4326 18.5565C12.4326 19.1605 12.9224 19.6503 13.5264 19.6503H23.1958C23.7998 19.6503 24.2896 19.1605 24.2896 18.5565C24.2896 17.9525 23.7999 17.4628 23.1958 17.4628Z" fill="#1B1713"/>
<path d="M8.86691 25.5985C8.66358 25.3951 8.3814 25.278 8.09374 25.278C7.80609 25.278 7.5239 25.395 7.32047 25.5985C7.11703 25.8019 7 26.084 7 26.3717C7 26.6595 7.11692 26.9415 7.32047 27.145C7.52401 27.3484 7.80609 27.4654 8.09374 27.4654C8.3814 27.4654 8.66358 27.3485 8.86691 27.145C9.07035 26.9415 9.18749 26.6595 9.18749 26.3717C9.18749 26.084 9.07045 25.8019 8.86691 25.5985Z" fill="#1B1713"/>
<path d="M23.1958 25.2777H13.5264C12.9224 25.2777 12.4326 25.7675 12.4326 26.3715C12.4326 26.9754 12.9224 27.4652 13.5264 27.4652H23.1958C23.7998 27.4652 24.2896 26.9754 24.2896 26.3715C24.2896 25.7675 23.7999 25.2777 23.1958 25.2777Z" fill="#1B1713"/>
<path d="M8.86691 33.4125C8.66358 33.2092 8.3814 33.0931 8.09374 33.0931C7.80609 33.0931 7.5239 33.2092 7.32047 33.4125C7.11703 33.617 7 33.8992 7 34.1869C7 34.4745 7.11692 34.7556 7.32047 34.9592C7.5239 35.1637 7.80609 35.2806 8.09374 35.2806C8.3814 35.2806 8.66358 35.1637 8.86691 34.9592C9.07035 34.7557 9.18749 34.4745 9.18749 34.1869C9.18749 33.8992 9.07045 33.6172 8.86691 33.4125Z" fill="#1B1713"/>
<path d="M23.1958 33.0911H13.5264C12.9224 33.0911 12.4326 33.5808 12.4326 34.1848C12.4326 34.7888 12.9224 35.2786 13.5264 35.2786H23.1958C23.7998 35.2786 24.2896 34.7888 24.2896 34.1848C24.2896 33.5808 23.7999 33.0911 23.1958 33.0911Z" fill="#1B1713"/>
<path d="M8.09374 40.9061C7.80609 40.9061 7.5239 41.023 7.32047 41.2266C7.11703 41.4301 7 41.7122 7 41.9999C7 42.2875 7.11692 42.5697 7.32047 42.773C7.5239 42.9766 7.80609 43.0936 8.09374 43.0936C8.3814 43.0936 8.66358 42.9766 8.86691 42.773C9.07045 42.5697 9.18749 42.2875 9.18749 41.9999C9.18749 41.7122 9.07045 41.43 8.86691 41.2266C8.66358 41.023 8.3814 40.9061 8.09374 40.9061Z" fill="#1B1713"/>
<path d="M23.1958 40.9061H13.5264C12.9224 40.9061 12.4326 41.3959 12.4326 41.9999C12.4326 42.6038 12.9224 43.0936 13.5264 43.0936H23.1958C23.7998 43.0936 24.2896 42.6038 24.2896 41.9999C24.2896 41.3959 23.7999 40.9061 23.1958 40.9061Z" fill="#1B1713"/>
<path d="M20.7812 53.8124C20.4936 53.8124 20.2114 53.9293 20.008 54.1328C19.8045 54.3364 19.6875 54.6185 19.6875 54.9061C19.6875 55.1938 19.8044 55.476 20.008 55.6793C20.2114 55.8827 20.4936 55.9999 20.7812 55.9999C21.0689 55.9999 21.3511 55.8828 21.5544 55.6793C21.758 55.476 21.875 55.1938 21.875 54.9061C21.875 54.6185 21.758 54.3363 21.5544 54.1328C21.3511 53.9293 21.0689 53.8124 20.7812 53.8124Z" fill="#1B1713"/>
</svg>
