<svg width="56" height="56" viewBox="0 0 56 56" fill="none" xmlns="http://www.w3.org/2000/svg">
<path d="M50.0249 10.7118H51.7552C52.3588 10.7118 52.8482 10.2224 52.8482 9.6188C52.8482 9.01522 52.3588 8.52576 51.7552 8.52576H47.6017C46.9981 8.52576 46.5087 9.01522 46.5087 9.6188V13.7723C46.5087 14.3759 46.9981 14.8654 47.6017 14.8654C48.2053 14.8654 48.6947 14.3759 48.6947 13.7723V12.5697C52.0112 17.0097 53.8139 22.3969 53.8139 28C53.8139 42.2339 42.2339 53.8139 28 53.8139C13.7661 53.8139 2.18607 42.2339 2.18607 28C2.18607 13.7661 13.7661 2.18607 28 2.18607C29.0527 2.18607 30.1122 2.25001 31.1492 2.37603C31.7477 2.44839 32.2934 2.02222 32.3662 1.42291C32.4391 0.823709 32.0124 0.278723 31.4131 0.205927C30.2888 0.0692983 29.1406 0 28 0C20.5209 0 13.4894 2.91249 8.20102 8.20102C2.91249 13.4894 0 20.5209 0 28C0 35.4791 2.91249 42.5106 8.20102 47.799C13.4894 53.0875 20.5209 56 28 56C35.4791 56 42.5106 53.0875 47.799 47.799C53.0875 42.5106 56 35.4791 56 28C56 21.6887 53.8915 15.6298 50.0249 10.7118Z" fill="#1B1713"/>
<path d="M11.8571 16.5069C11.347 16.184 10.6718 16.3359 10.3488 16.8457C7.85356 20.7868 6.74894 25.5264 7.23851 30.1915C7.73529 34.9259 9.86616 39.3905 13.2386 42.763C17.3085 46.833 22.6546 48.868 28.0009 48.868C33.3471 48.868 38.6931 46.8331 42.7632 42.763C50.9031 34.6231 50.9031 21.3784 42.7632 13.2386C39.3959 9.8714 34.9386 7.7413 30.2121 7.24069C25.5555 6.74718 20.8211 7.84317 16.8817 10.3262C16.3709 10.6481 16.218 11.3231 16.5398 11.8337C16.8617 12.3445 17.5366 12.4974 18.0473 12.1756C25.4731 7.49525 35.0008 8.56785 41.2173 14.7844C48.5049 22.0719 48.5049 33.9296 41.2173 41.2172C33.9298 48.5049 22.0719 48.5049 14.7845 41.2172C8.65387 35.0866 7.56521 25.3287 12.196 18.0153C12.5187 17.5051 12.3671 16.8299 11.8571 16.5069Z" fill="#1B1713"/>
<path d="M42.2102 29.1099H43.5582C44.1617 29.1099 44.6512 28.6204 44.6512 28.0169C44.6512 27.4133 44.1617 26.9238 43.5582 26.9238H42.2102C41.6066 26.9238 41.1172 27.4133 41.1172 28.0169C41.1172 28.6204 41.6065 29.1099 42.2102 29.1099Z" fill="#1B1713"/>
<path d="M11.3496 27.9817C11.3496 28.5853 11.8391 29.0747 12.4426 29.0747H13.7906C14.3941 29.0747 14.8836 28.5853 14.8836 27.9817C14.8836 27.3781 14.3941 26.8887 13.7906 26.8887H12.4426C11.8391 26.8887 11.3496 27.378 11.3496 27.9817Z" fill="#1B1713"/>
<path d="M29.1109 13.7906V12.4426C29.1109 11.8391 28.6214 11.3496 28.0178 11.3496C27.4143 11.3496 26.9248 11.8391 26.9248 12.4426V13.7906C26.9248 14.3941 27.4143 14.8836 28.0178 14.8836C28.6214 14.8836 29.1109 14.3941 29.1109 13.7906Z" fill="#1B1713"/>
<path d="M26.8887 42.2102V43.5582C26.8887 44.1617 27.3781 44.6512 27.9817 44.6512C28.5853 44.6512 29.0747 44.1617 29.0747 43.5582V42.2102C29.0747 41.6066 28.5853 41.1172 27.9817 41.1172C27.3781 41.1172 26.8887 41.6065 26.8887 42.2102Z" fill="#1B1713"/>
<path d="M22.5213 20.9749C22.0943 20.5482 21.4024 20.5482 20.9754 20.9749C20.5486 21.4017 20.5486 22.0938 20.9754 22.5208L24.6798 26.2252C24.3959 26.7542 24.2345 27.3583 24.2345 27.9995C24.2345 30.0758 25.9237 31.765 28 31.765C30.0763 31.765 31.7655 30.0758 31.7655 27.9995C31.7655 27.3583 31.6039 26.7542 31.3202 26.2252L38.7947 18.7507C39.2215 18.3239 39.2215 17.6317 38.7947 17.2048C38.3677 16.7781 37.6758 16.7781 37.2488 17.2048L29.7743 24.6793C29.2453 24.3954 28.6412 24.234 28 24.234C27.3588 24.234 26.7547 24.3955 26.2257 24.6793L22.5213 20.9749ZM29.5794 27.9995C29.5794 28.8704 28.8709 29.5789 28 29.5789C27.1291 29.5789 26.4206 28.8704 26.4206 27.9995C26.4206 27.1286 27.1291 26.4201 28 26.4201C28.8709 26.4201 29.5794 27.1286 29.5794 27.9995Z" fill="#1B1713"/>
<path d="M14.7828 14.7838C14.9872 14.5805 15.104 14.2985 15.104 14.011C15.104 13.7235 14.9872 13.4426 14.7828 13.2382C14.5795 13.035 14.2985 12.918 14.01 12.918C13.7226 12.918 13.4406 13.0349 13.2372 13.2382C13.0341 13.4415 12.917 13.7235 12.917 14.011C12.917 14.2996 13.0339 14.5805 13.2372 14.7838C13.4406 14.987 13.7226 15.104 14.01 15.104C14.2985 15.104 14.5795 14.987 14.7828 14.7838Z" fill="#1B1713"/>
<path d="M35.5715 3.26614C35.8602 3.26614 36.1422 3.15017 36.3454 2.94588C36.5487 2.74258 36.6658 2.46156 36.6658 2.17311C36.6658 1.88564 36.5488 1.60364 36.3454 1.40034C36.1422 1.19714 35.8602 1.08008 35.5715 1.08008C35.2841 1.08008 35.0021 1.19703 34.7989 1.40034C34.5956 1.60364 34.4785 1.88564 34.4785 2.17311C34.4785 2.46167 34.5955 2.74258 34.7989 2.94588C35.0021 3.15017 35.2841 3.26614 35.5715 3.26614Z" fill="#1B1713"/>
</svg>
