<svg width="23" height="23" viewBox="0 0 23 23" fill="none" xmlns="http://www.w3.org/2000/svg">
<path d="M14.8664 0H7.43318V2.19048H14.8664V0ZM9.91091 14.2381H12.3886V7.66667H9.91091V14.2381ZM19.859 6.99857L21.6182 5.44333C21.0855 4.88476 20.5032 4.35905 19.8714 3.89905L18.1122 5.45429C16.1919 4.09619 13.7762 3.28571 11.1498 3.28571C4.99262 3.28571 0 7.69952 0 13.1429C0 18.5862 4.98023 23 11.1498 23C17.3193 23 22.2995 18.5862 22.2995 13.1429C22.2995 10.821 21.3828 8.68524 19.859 6.99857ZM11.1498 20.8095C6.35537 20.8095 2.47773 17.3814 2.47773 13.1429C2.47773 8.90429 6.35537 5.47619 11.1498 5.47619C15.9442 5.47619 19.8218 8.90429 19.8218 13.1429C19.8218 17.3814 15.9442 20.8095 11.1498 20.8095Z" fill="#1B1713"/>
</svg>
